# xmcd
#
# Track frame offsets: 
#        150
#        18080
#        37532
#        72305
#        94987
#        139867
#        154035
#        167465
#        205725
#        261992
#        287455
#        311410
#        327257
#
# Disc length: 4661 seconds
#
# Revision: 5
# Processed by: cddbd v1.5.2PL0 Copyright (c) Steve Scherf et al.
# Submitted via: ExactAudioCopy v1.0b2
#
DISCID=a512330d
DTITLE=Stevie Ray Vaughan And Double Trouble - In Memoriam CD1
DYEAR=1983
DGENRE=Blues
TTITLE0=Testify
TTITLE1=So Excited
TTITLE2=Voodoo Chile (Slight Return)
TTITLE3=Pride and Joy
TTITLE4=Texas Flood
TTITLE5=Love Struck Baby
TTITLE6=Mary Had a Little Lamb
TTITLE7=Tin Pan Alley
TTITLE8=Little Wing - Third Stone from the Sun
TTITLE9=Lenny
TTITLE10=Rude Mood
TTITLE11=Tell Me
TTITLE12=In The Open
EXTD=
EXTT0=
EXTT1=
EXTT2=
EXTT3=
EXTT4=
EXTT5=
EXTT6=
EXTT7=
EXTT8=
EXTT9=
EXTT10=
EXTT11=
EXTT12=
PLAYORDER=
